PathFileType	4	(X/Y/Z)	C:/Users/beibeiliu/ov580/test_trc/User1\sequence.11_training_dense_right.trc
DataRate	CameraRate	NumFrames	NumMarkers	Units	OrigDataRate	OrigDataStartFrame	OrigNumFrames
120	120	10	19	mm	120	256	341
Frame#	Time	ThumbCMC			ThumbMCP			ThumbIP			ThumbTip			IndexMCP			IndexPIP			IndexTip			MiddleMCP			MiddlePIP			MiddleTip			RingMCP			RingPIP			RingTip			PinkyMCP			PinkyPIP			PinkyTip			BackHand1			BackHand2			BackHand3	
		X0	Y0	Z0	X1	Y1	Z1	X2	Y2	Z2	X3	Y3	Z3	X4	Y4	Z4	X5	Y5	Z5	X6	Y6	Z6	X7	Y7	Z7	X8	Y8	Z8	X9	Y9	Z9	X10	Y10	Z10	X11	Y11	Z11	X12	Y12	Z12	X13	Y13	Z13	X14	Y14	Z14	X15	Y15	Z15	X16	Y16	Z16	X17	Y17	Z17	X18	Y18	Z18	
255	2.125	132.574	100.764	43.4966	129.006	73.7216	10.0539	136.809	58.7813	-15.337	158.952	46.0004	-32.2697	151.134	124.834	-34.3514	150.393	125.599	-61.8952	153.219	126.587	-90.2282	187.172	120.78	-40.7647	195.594	118.27	-66.309	203.996	114.929	-92.18	195.563	85.9227	-30.9907	180.064	51.9244	-30.9426	168.431	53.2795	-2.17287	208.526	68.182	-9.73215	184.499	50.8537	-0.673196	168.597	64.8176	21.1216	200.483	117.278	20.9372	197.365	122.029	59.2227	163.481	129.874	35.1556	
256	2.13333	135.353	104.298	38.6881	129.889	76.4396	10.507	138.614	63.6466	-15.1651	156.675	51.3125	-28.5918	154.082	127.302	-37.2263	151.797	129.059	-60.6055	155.3	128.217	-87.9757	189.645	122.762	-37.5516	197.234	120.866	-66.3925	203.605	118.986	-95.9877	192.242	87.398	-36.5967	183.285	56.4979	-34.2787	168.537	55.2605	-4.44218	206.025	68.1818	-12.9642	182.199	54.5202	-3.16932	168.256	64.3862	19.2364	199.044	120.016	21.7347	198.138	123.908	55.7985	169.257	132.585	37.7857	
257	2.14167	132.679	107.299	41.9809	129.985	81.2407	11.6334	135.9	66.5825	-14.1253	157.636	55.8317	-30.5975	151.373	133.166	-37.5029	155.859	132.488	-65.244	157.123	132.185	-88.5286	186.684	129.448	-40.6847	194.389	126.386	-66.2108	204.125	122.832	-96.0961	193.405	93.9537	-36.9279	180.716	62.2573	-37.7591	167.704	59.9763	-8.24471	205.989	73.4856	-13.3625	184.659	56.4955	-7.42203	168.098	69.2746	19.93	201.621	120.916	19.3999	200.972	124.68	55.742	169.035	134.223	38.1334	
258	2.15	135.676	110.071	42.8705	125.988	84.8509	7.81365	136.109	72.2355	-16.0401	157.588	58.7	-33.2128	156.484	138.583	-34.2444	157.286	138.884	-64.1451	160.314	136.011	-85.9816	191.442	131.909	-38.1784	195.443	133.412	-69.4295	204.684	127.946	-96.8953	198.108	96.1597	-38.4167	179.947	67.8038	-41.5566	168.402	64.4246	-8.57002	206.071	80.6074	-13.4028	183.63	58.0172	-8.09897	166.559	73.7088	15.9443	202.536	125.352	22.292	204.803	123.037	55.795	169.617	139.201	37.6905	
259	2.15833	136.295	115.334	42.002	129.752	90.7423	9.13946	136.339	78.3997	-16.0585	152.932	63.1989	-32.9805	156.015	145.33	-35.5194	156.885	144.362	-61.9378	158.79	142.343	-89.0695	194.585	136.884	-39.9289	195.979	138.884	-67.2916	207.412	132.744	-92.6921	196.551	106.18	-36.4654	183.452	77.4696	-46.2241	165.756	67.7533	-18.4718	207.364	79.5761	-17.1675	180.518	63.5199	-11.4465	164.303	74.3751	11.1977	206.945	125.943	20.923	206.423	121.592	59.5792	170.097	140.531	41.3797	
260	2.16667	136.639	119.46	43.2348	127.338	96.0453	12.8319	129.994	83.212	-16.5466	145.839	66.2003	-37.6214	162.845	148.314	-35.7218	163.059	147.283	-59.8522	160.951	143.868	-88.7177	194.907	141.421	-34.1129	200.953	143.915	-63.8917	207.381	140.345	-93.2776	198.275	110.347	-37.687	181.155	84.3351	-51.6985	163.93	69.787	-25.9755	207.004	82.1521	-19.4289	182.191	67.289	-18.6437	163.272	75.8112	5.45803	207.783	123.903	25.1921	206.206	122.068	59.551	177.435	143.203	38.5489	
261	2.175	141.619	125.294	43.6651	127.846	102.972	8.84527	131.939	90.1524	-19.2302	144.854	74.6937	-36.2866	165.773	152.512	-33.8386	162.286	152.916	-58.5529	163.759	144.314	-86.2893	198.227	147.249	-36.31	205.823	146.533	-63.8716	210.498	146.989	-95.34	202.407	114.458	-39.3056	187.993	92.5246	-57.0375	161.898	74.2378	-38.9965	208.132	88.3029	-17.7121	182.162	70.3507	-25.1136	158.973	81.8613	-2.08375	210.407	125.196	23.2199	206.305	122.601	58.5598	179.968	144.04	41.0919	
262	2.18333	144.296	134.171	39.6522	126.846	111.342	12.021	126.208	98.8574	-16.921	136.941	80.9588	-36.7288	171.703	155.431	-37.509	171.169	150.425	-61.083	169.659	144.091	-87.0498	205.84	143.791	-36.1018	212.377	147.138	-65.9757	217.082	145.29	-92.7549	205.512	115.336	-36.5296	186.512	97.7868	-61.0224	161.986	76.8578	-51.6811	205.806	86.0985	-20.324	181.026	74.5303	-30.3305	156.665	79.5936	-12.0464	213.926	120.027	25.9395	212.759	120.489	58.3278	188.396	147.254	38.1826	
263	2.19167	152.175	142.327	38.2194	131.495	123.518	9.31825	131.95	108.3	-19.903	135.022	89.0913	-36.9176	182.972	156.173	-37.3529	179.219	154.115	-62.7057	177.222	145.977	-84.3305	213.358	137.305	-33.4017	220.044	138.712	-61.4075	225.951	139.165	-92.6156	207.557	109.88	-36.6524	190.289	93.6159	-61.4541	161.871	80.5798	-59.0019	203.106	81.0953	-17.8667	175.423	74.6721	-29.3032	149.827	85.1068	-15.0766	215.228	116.286	25.9529	214.336	116.166	59.8898	194.458	145.189	40.9623	
264	2.2	158.773	151.018	42.7006	136.429	133.004	12.5489	133.165	115.333	-17.507	134.97	94.0663	-29.0215	194.852	151.433	-37.737	190.606	150.947	-60.686	188.464	140.849	-84.7869	221.127	126.769	-32.6939	230.251	124.601	-60.1254	237.583	120.102	-90.9635	207.784	97.8593	-32.6599	185.975	91.2948	-59.5765	153.052	81.7832	-58.0294	194.749	77.6451	-15.0658	165.909	76.9632	-25.4512	146.082	95.9098	-6.00622	216.851	105.704	28.4853	214.484	110.834	58.8041	203.658	142.434	40.8532	
